<svg xmlns="http://www.w3.org/2000/svg" version="1.1" xmlns:xlink="http://www.w3.org/1999/xlink" xmlns:svgjs="http://svgjs.dev/svgjs" width="1500" height="488" viewBox="0 0 1500 488"><g transform="matrix(1,0,0,1,-3.936311688311662,-1.5838596491228145)"><svg viewBox="0 0 175 57" data-background-color="#ffffff" preserveAspectRatio="xMidYMid meet" height="488" width="1500" xmlns="http://www.w3.org/2000/svg" xmlns:xlink="http://www.w3.org/1999/xlink"><g id="tight-bounds" transform="matrix(1,0,0,1,0.45923636363636433,0.18500000000000227)"><svg viewBox="0 0 174.08152727272727 56.629999999999995" height="56.629999999999995" width="174.08152727272727"><g><svg viewBox="0 0 174.08152727272727 56.629999999999995" height="56.629999999999995" width="174.08152727272727"><g><svg viewBox="0 0 174.08152727272727 56.629999999999995" height="56.629999999999995" width="174.08152727272727"><g id="textblocktransform"><svg viewBox="0 0 174.08152727272727 56.629999999999995" height="56.629999999999995" width="174.08152727272727" id="textblock"><g><svg viewBox="0 0 174.08152727272727 56.629999999999995" height="56.629999999999995" width="174.08152727272727"><g><svg><g></g><g></g></svg></g><g><svg><g></g><g><svg></svg></g></svg></g><g id="text-0"><svg viewBox="0 0 174.08152727272727 56.629999999999995" height="56.629999999999995" width="174.08152727272727"><g><svg xmlns="http://www.w3.org/2000/svg" xmlns:xlink="http://www.w3.org/1999/xlink" version="1.1" x="0" y="0" viewBox="6.3 11.5 87.4 77" style="enable-background:new 0 0 100 100;" xml:space="preserve" height="56.629999999999995" width="64.27872727272727" class="icon-dxe-0" data-fill-palette-color="accent" id="dxe-0"><path d="M72.3 12.3L71.9 11.5H28.2L6.3 50 28.1 88.5H71.8L93.7 50zM33.3 25.3L9.9 47.7 28.5 14.9zM70.7 14.8L77.1 50.5 36.9 25.8zM35.5 27.3L76.5 52.5 35.5 75.8zM77 54.5L69.8 85.3 37.2 77.2zM33.5 75L9.9 50.5 33.5 27.8zM33.2 77.6L28.6 85.3 11.5 55.1zM35 78.6L66.4 86.5H30.2zM79.3 53.3L90.9 50.8 72.1 84zM90.7 48.9L79.3 51.4 73.4 18.3zM35 24.3L30 13.5H68.2z" fill="#0179fe" data-fill-palette-color="accent"></path></svg></g><g transform="matrix(1,0,0,1,77.64872727272727,0)"><svg width="96.4328" viewBox="4.25 -35 59.6 35" height="56.629999999999995" data-palette-color="#4893ff"><path d="M24.45-24.65L24.45-24.65Q24.45-27.8 22.6-29.65 20.75-31.5 16.55-31.5L16.55-31.5 8.25-31.5 8.25-17.8 16.6-17.8Q19.35-17.8 21.08-18.65 22.8-19.5 23.63-21.05 24.45-22.6 24.45-24.65ZM4.25-35L16.55-35Q20.65-35 23.28-33.6 25.9-32.2 27.2-29.88 28.5-27.55 28.5-24.65L28.5-24.65Q28.5-22.6 27.83-20.75 27.15-18.9 25.7-17.45 24.25-16 22-15.15 19.75-14.3 16.6-14.3L16.6-14.3 8.25-14.3 8.25 0 4.25 0 4.25-35ZM15.15-15.8L19.45-15.8 29.15 0 24.6 0 15.15-15.8ZM46.7-17.5L34.1-35 38.5-35 48.95-20.7 59.4-35 63.85-35 51.2-17.5 63.85 0 59.4 0 48.95-14.3 38.5 0 34.1 0 46.7-17.5Z" opacity="1" transform="matrix(1,0,0,1,0,0)" fill="#4893ff" class="wordmark-text-0" data-fill-palette-color="primary"></path></svg></g></svg></g></svg></g></svg></g></svg></g></svg></g><defs></defs></svg><rect width="174.08152727272727" height="56.629999999999995" fill="none" stroke="none" visibility="hidden"></rect></g></svg></g></svg>