<?xml version="1.0" standalone="no"?>
<!DOCTYPE svg PUBLIC "-//W3C//DTD SVG 20010904//EN"
 "http://www.w3.org/TR/2001/REC-SVG-20010904/DTD/svg10.dtd">
<svg version="1.0" xmlns="http://www.w3.org/2000/svg"
 width="567.000000pt" height="567.000000pt" viewBox="0 0 567.000000 567.000000"
 preserveAspectRatio="xMidYMid meet">
<metadata>
Created by potrace 1.14, written by Peter Selinger 2001-2017
</metadata>
<g transform="translate(0.000000,567.000000) scale(0.100000,-0.100000)"
fill="#000000" stroke="none">
<path d="M4625 5400 c-33 -10 -107 -32 -165 -49 -58 -16 -121 -35 -140 -41
-19 -6 -44 -13 -55 -15 -19 -5 -62 -17 -240 -70 -93 -28 -395 -116 -410 -119
-5 -2 -37 -11 -70 -21 -33 -10 -64 -20 -70 -21 -5 -1 -66 -19 -135 -39 -69
-20 -186 -54 -260 -75 -74 -22 -182 -54 -240 -71 -58 -17 -127 -37 -155 -44
-27 -8 -97 -28 -155 -45 -155 -47 -217 -65 -257 -74 -10 -2 -48 -13 -85 -25
-38 -12 -98 -30 -135 -42 -38 -12 -76 -23 -86 -25 -9 -2 -26 -6 -37 -8 -11 -3
-24 -7 -28 -10 -5 -3 -19 -7 -33 -10 -13 -3 -55 -15 -94 -26 -38 -12 -77 -23
-85 -25 -8 -2 -107 -31 -220 -64 -113 -33 -299 -87 -415 -121 -116 -33 -217
-63 -225 -67 -8 -3 -24 -8 -34 -10 -10 -2 -64 -17 -120 -34 -56 -16 -132 -39
-171 -50 -38 -11 -81 -24 -95 -29 -29 -9 -167 -48 -195 -55 -68 -16 -161 -47
-182 -60 -43 -28 -42 -39 7 -205 89 -301 112 -377 115 -391 2 -9 9 -34 15 -55
6 -22 15 -52 20 -69 4 -16 34 -115 65 -220 31 -104 58 -197 60 -205 2 -8 22
-78 45 -155 23 -77 43 -147 45 -155 2 -8 24 -85 50 -170 25 -85 48 -164 50
-175 6 -24 43 -151 55 -185 5 -14 16 -50 24 -80 8 -30 37 -134 66 -230 l51
-175 0 -643 0 -644 24 -24 24 -24 2434 0 2434 0 27 21 26 20 0 1455 0 1455
-25 24 c-23 24 -30 25 -140 25 -63 0 -115 2 -115 4 0 4 -54 188 -110 376 -11
36 -26 90 -34 120 -9 30 -31 109 -51 175 -20 66 -38 127 -40 135 -12 43 -93
319 -124 418 -5 18 -10 34 -11 37 0 3 -2 10 -4 17 -11 36 -88 305 -91 318 -8
35 -137 469 -151 508 -25 66 -47 72 -149 42z m123 -33 c13 -27 30 -81 72 -227
10 -36 27 -95 37 -131 l20 -66 -54 -17 c-30 -10 -63 -19 -74 -22 -32 -7 -48
-12 -224 -64 -93 -28 -177 -53 -185 -55 -13 -3 -144 -41 -500 -145 -52 -15
-153 -44 -225 -65 -71 -20 -137 -39 -145 -42 -8 -3 -19 -7 -25 -9 -11 -2 -154
-44 -350 -101 -202 -58 -219 -64 -235 -68 -8 -2 -53 -15 -100 -30 -47 -14 -94
-27 -105 -29 -11 -2 -56 -15 -100 -29 -44 -14 -181 -55 -305 -90 -552 -161
-603 -175 -864 -252 -88 -26 -167 -48 -175 -50 -9 -2 -171 -50 -361 -105 -190
-56 -352 -103 -360 -105 -8 -2 -69 -20 -135 -40 -66 -20 -131 -38 -144 -41
-13 -3 -32 -9 -42 -15 -10 -5 -20 -6 -22 -2 -5 10 -26 74 -32 99 -2 10 -16 57
-30 104 -29 94 -28 89 -51 178 -25 94 -44 83 306 181 137 39 319 93 377 112
18 5 40 12 50 14 10 2 41 11 68 19 220 65 332 98 345 101 8 2 38 11 65 19 69
20 286 83 370 108 39 11 77 21 85 23 8 2 15 4 15 5 0 1 7 3 15 5 15 4 210 60
330 96 85 26 80 24 120 33 19 5 41 13 48 18 6 6 12 7 12 3 0 -4 7 -2 15 5 8 7
15 10 15 6 0 -3 11 -1 25 4 14 5 36 12 48 14 12 3 45 12 72 20 28 8 120 35
205 60 85 25 218 63 295 86 251 74 380 112 390 114 13 4 97 28 300 88 94 27
177 51 185 54 8 2 85 24 170 49 85 25 162 47 170 49 8 2 49 14 90 26 41 12 91
26 110 31 19 6 62 19 96 30 33 11 70 22 82 24 29 7 45 11 122 34 82 25 101 23
118 -12z m285 -962 c15 -49 29 -99 32 -110 5 -21 69 -240 125 -425 17 -58 38
-130 46 -160 8 -30 22 -80 31 -110 9 -30 18 -61 20 -67 6 -25 10 -38 16 -53 3
-8 18 -55 32 -105 14 -49 29 -98 32 -107 6 -20 48 -18 -472 -18 -398 0 -443 1
-415 10 44 14 135 42 145 44 6 2 30 9 55 16 25 8 47 14 50 15 3 1 20 5 37 9
47 11 73 47 63 89 -10 46 -50 189 -57 207 -3 8 -7 20 -8 25 -24 103 -55 188
-74 202 -25 19 -42 17 -245 -42 -233 -68 -241 -71 -253 -98 -12 -27 -12 -33
22 -142 15 -49 29 -96 31 -105 2 -8 11 -40 20 -70 9 -30 19 -69 23 -85 4 -17
13 -40 20 -53 12 -22 11 -22 -61 -22 -399 -2 -1002 1 -1005 4 -3 3 126 39 187
52 39 8 69 32 76 61 6 21 2 31 -20 50 -31 26 -29 27 -176 -17 -58 -17 -114
-33 -124 -35 -10 -3 -60 -16 -110 -31 -50 -14 -98 -27 -106 -29 -8 -2 -54 -15
-103 -29 -82 -24 -102 -26 -310 -26 -320 -1 -309 -4 -167 36 69 20 132 37 140
39 8 2 80 22 160 45 80 23 152 43 160 45 57 11 161 49 174 64 22 24 11 76 -18
88 -18 8 -49 5 -106 -12 -8 -2 -89 -25 -180 -50 -91 -25 -203 -57 -250 -70
-47 -13 -166 -46 -265 -74 -251 -70 -246 -68 -270 -91 -22 -21 -28 -21 -605
-21 l-582 0 -23 -23 -23 -23 -1 -763 c0 -419 -3 -765 -6 -768 -3 -3 -5 6 -5
20 0 13 -3 28 -7 32 -4 3 -8 13 -9 20 -1 7 -10 40 -20 72 -9 33 -18 64 -20 69
-3 16 -112 392 -139 480 -13 44 -34 114 -46 155 -11 41 -30 104 -41 140 -11
36 -22 74 -24 86 -2 12 -10 40 -19 63 -8 23 -14 42 -14 44 1 1 -7 29 -17 62
-10 33 -19 65 -20 70 -2 6 -5 19 -8 30 -7 27 -22 76 -30 96 -8 19 7 26 144 64
52 15 147 43 210 62 63 19 122 36 130 38 14 3 92 25 210 60 25 7 133 38 240
70 107 31 224 65 260 75 36 11 182 53 325 95 143 42 292 85 330 96 39 12 84
25 100 30 17 5 71 21 120 35 50 14 113 33 140 41 28 8 55 15 60 17 11 3 48 14
331 97 110 32 209 60 220 62 10 2 26 7 34 10 18 7 326 97 349 102 9 2 69 19
133 39 65 20 164 49 220 65 57 17 189 55 293 86 105 30 199 58 211 60 11 3 74
21 140 40 116 35 151 45 339 100 162 48 180 52 186 46 3 -3 18 -46 32 -96z
m595 -1191 c22 -14 22 -15 22 -289 l0 -275 -2464 1 -2463 0 -1 267 c0 207 3
272 13 288 l14 21 2428 1 c2094 0 2431 -2 2451 -14z m-4708 -584 c3 -2 10 -1
15 0 6 1 35 2 65 1 66 0 449 0 505 0 22 1 45 0 50 -1 6 -1 15 -1 20 0 6 1 35
2 65 1 66 0 449 0 505 0 22 1 45 0 50 -1 6 -1 15 -1 20 0 6 1 35 2 65 1 30 0
109 0 175 0 101 0 179 0 230 -2 6 0 37 0 70 1 33 1 116 1 185 1 69 0 143 0
165 0 22 1 45 0 50 -1 6 -1 15 -1 20 0 6 1 35 2 65 1 30 0 109 0 175 0 66 0
143 0 170 -1 62 -1 -5 -1 535 -1 256 0 472 0 480 0 8 0 42 0 75 1 33 1 116 1
185 1 69 0 143 0 165 0 22 1 45 0 50 -1 6 -1 15 -1 20 0 6 1 35 2 65 1 30 0
109 0 175 0 66 0 140 0 165 0 98 -2 133 -1 141 5 12 7 12 -2327 -1 -2346 -8
-13 -292 -15 -2441 -18 -2109 -2 -2435 0 -2454 12 l-22 15 1 1163 1 1163 60 5
c55 5 122 4 135 0z"/>
<path d="M528 4047 c-123 -55 -69 -242 65 -224 109 15 140 159 45 217 -37 23
-70 25 -110 7z m112 -35 c28 -24 34 -35 34 -70 1 -116 -157 -139 -191 -28 -9
29 -8 41 6 67 34 62 97 76 151 31z"/>
<path d="M400 4002 c-75 -33 -96 -107 -50 -172 24 -34 87 -53 119 -36 21 12
21 12 -13 29 -58 27 -80 114 -40 158 24 26 17 36 -16 21z"/>
<path d="M1189 3084 c-33 -14 -69 -64 -69 -97 0 -93 91 -153 175 -115 108 49
65 231 -54 227 -9 0 -32 -7 -52 -15z m94 -15 c56 -25 74 -108 33 -152 -60 -65
-158 -37 -172 49 -5 34 -2 45 20 71 24 28 41 37 83 42 7 0 23 -4 36 -10z"/>
<path d="M1044 3074 c-38 -19 -62 -60 -58 -102 3 -39 28 -81 52 -88 9 -3 24
-9 32 -13 8 -5 24 -5 35 -1 18 6 18 8 -7 24 -51 33 -53 114 -5 164 l31 32 -25
0 c-13 0 -38 -7 -55 -16z"/>
<path d="M1666 1984 c-14 -15 -26 -36 -27 -48 0 -11 -2 -84 -2 -161 -2 -125 0
-143 18 -170 29 -42 66 -53 110 -32 20 9 39 27 44 39 5 13 8 97 7 186 l-1 164
-28 24 c-38 33 -86 32 -121 -2z"/>
<path d="M1924 1998 c-40 -19 -47 -49 -48 -209 -1 -128 2 -156 16 -181 38 -62
118 -62 150 1 13 27 16 61 15 193 l-2 160 -28 24 c-29 25 -67 30 -103 12z"/>
<path d="M2146 1984 c-30 -30 -28 -20 -28 -218 l-1 -150 33 -29 c27 -24 39
-28 67 -24 20 4 44 17 57 32 22 26 23 34 22 197 l-1 170 -28 24 c-38 33 -86
32 -121 -2z"/>
<path d="M2516 1984 c-30 -30 -28 -20 -28 -218 l-1 -150 32 -28 c35 -32 59
-35 101 -13 42 22 50 61 47 233 l-2 154 -28 24 c-38 33 -86 32 -121 -2z"/>
<path d="M2756 1984 c-29 -30 -28 -24 -29 -223 l0 -145 32 -28 c35 -31 59 -35
100 -14 44 23 50 50 48 226 l-2 162 -28 24 c-38 33 -86 32 -121 -2z"/>
<path d="M3003 1991 c-35 -29 -39 -54 -37 -220 l1 -154 33 -30 c27 -24 39 -28
69 -23 22 3 44 16 57 32 20 25 21 37 20 196 l-1 170 -28 24 c-34 29 -83 31
-114 5z"/>
<path d="M3366 1984 c-30 -30 -28 -21 -28 -213 0 -96 4 -151 12 -167 15 -26
63 -46 98 -39 62 12 70 40 68 233 l-1 164 -28 24 c-38 33 -86 32 -121 -2z"/>
<path d="M3622 2000 c-38 -16 -47 -56 -46 -211 0 -79 4 -155 9 -169 15 -47 68
-69 117 -49 51 21 55 39 54 222 l-1 169 -28 24 c-29 25 -65 30 -105 14z"/>
<path d="M3846 1984 c-29 -30 -28 -19 -29 -217 0 -146 0 -148 26 -175 30 -31
59 -37 100 -20 48 19 55 47 53 226 l-1 164 -28 24 c-38 33 -86 32 -121 -2z"/>
<path d="M4238 2003 c-9 -2 -24 -16 -34 -31 -15 -23 -18 -51 -18 -191 l0 -164
32 -28 c18 -16 41 -29 53 -29 31 0 74 26 86 52 5 13 10 95 10 182 l1 160 -28
28 c-27 27 -57 33 -102 21z"/>
<path d="M4467 1998 c-36 -28 -42 -60 -41 -222 l1 -159 31 -29 c18 -15 42 -28
55 -28 27 0 86 35 88 52 1 7 3 86 4 176 l3 163 -28 29 c-31 33 -82 41 -113 18z"/>
<path d="M4696 1985 c-31 -33 -32 -42 -30 -219 l1 -149 32 -29 c17 -15 40 -28
52 -28 31 0 74 26 86 52 6 13 10 91 9 186 l-1 164 -28 24 c-38 33 -90 32 -121
-1z"/>
<path d="M1430 933 c-34 -13 -41 -70 -12 -96 16 -15 50 -17 274 -17 234 0 256
1 271 18 22 24 22 71 0 88 -14 10 -75 13 -268 13 -137 0 -257 -3 -265 -6z"/>
<path d="M1020 673 c-44 -18 -50 -70 -11 -100 12 -9 174 -12 684 -13 656 0
667 0 687 20 24 24 20 68 -7 87 -9 7 -44 13 -77 13 -885 6 -1252 4 -1276 -7z"/>
</g>
</svg>
